<mxfile host="app.diagrams.net" modified="2022-07-14T08:47:54.881Z" agent="5.0 (Windows NT 10.0; Win64; x64) AppleWebKit/537.36 (KHTML, like Gecko) Chrome/103.0.0.0 Safari/537.36" etag="BvwyaXkdspuHeYwyMF3J" version="20.1.1" type="github">
  <diagram id="C5RBs43oDa-KdzZeNtuy" name="Page-1">
    <mxGraphModel dx="1422" dy="786" grid="1" gridSize="10" guides="1" tooltips="1" connect="1" arrows="1" fold="1" page="1" pageScale="1" pageWidth="1169" pageHeight="827" math="0" shadow="0">
      <root>
        <mxCell id="WIyWlLk6GJQsqaUBKTNV-0" />
        <mxCell id="WIyWlLk6GJQsqaUBKTNV-1" parent="WIyWlLk6GJQsqaUBKTNV-0" />
        <mxCell id="ZK_sKQKA7-tzC6VgeQzl-44" style="edgeStyle=orthogonalEdgeStyle;rounded=0;orthogonalLoop=1;jettySize=auto;html=1;exitX=0.5;exitY=1;exitDx=0;exitDy=0;" edge="1" parent="WIyWlLk6GJQsqaUBKTNV-1" source="ZK_sKQKA7-tzC6VgeQzl-0" target="ZK_sKQKA7-tzC6VgeQzl-1">
          <mxGeometry relative="1" as="geometry" />
        </mxCell>
        <mxCell id="ZK_sKQKA7-tzC6VgeQzl-0" value="Chegada do material" style="ellipse;whiteSpace=wrap;html=1;fillColor=#fff2cc;strokeColor=#d6b656;" vertex="1" parent="WIyWlLk6GJQsqaUBKTNV-1">
          <mxGeometry x="1000" y="40" width="90" height="40" as="geometry" />
        </mxCell>
        <mxCell id="ZK_sKQKA7-tzC6VgeQzl-23" style="edgeStyle=orthogonalEdgeStyle;rounded=0;orthogonalLoop=1;jettySize=auto;html=1;exitX=0.5;exitY=1;exitDx=0;exitDy=0;" edge="1" parent="WIyWlLk6GJQsqaUBKTNV-1" source="ZK_sKQKA7-tzC6VgeQzl-1" target="ZK_sKQKA7-tzC6VgeQzl-5">
          <mxGeometry relative="1" as="geometry" />
        </mxCell>
        <mxCell id="ZK_sKQKA7-tzC6VgeQzl-1" value="Leitura do QR Code" style="rounded=0;whiteSpace=wrap;html=1;fillColor=#d5e8d4;strokeColor=#82b366;" vertex="1" parent="WIyWlLk6GJQsqaUBKTNV-1">
          <mxGeometry x="985" y="120" width="120" height="60" as="geometry" />
        </mxCell>
        <mxCell id="ZK_sKQKA7-tzC6VgeQzl-25" style="edgeStyle=orthogonalEdgeStyle;rounded=0;orthogonalLoop=1;jettySize=auto;html=1;exitX=0.5;exitY=1;exitDx=0;exitDy=0;entryX=0.5;entryY=0;entryDx=0;entryDy=0;" edge="1" parent="WIyWlLk6GJQsqaUBKTNV-1" source="ZK_sKQKA7-tzC6VgeQzl-2" target="ZK_sKQKA7-tzC6VgeQzl-3">
          <mxGeometry relative="1" as="geometry" />
        </mxCell>
        <mxCell id="ZK_sKQKA7-tzC6VgeQzl-48" style="edgeStyle=orthogonalEdgeStyle;rounded=0;orthogonalLoop=1;jettySize=auto;html=1;exitX=0;exitY=0.5;exitDx=0;exitDy=0;entryX=1;entryY=0.5;entryDx=0;entryDy=0;" edge="1" parent="WIyWlLk6GJQsqaUBKTNV-1" source="ZK_sKQKA7-tzC6VgeQzl-2" target="ZK_sKQKA7-tzC6VgeQzl-12">
          <mxGeometry relative="1" as="geometry" />
        </mxCell>
        <mxCell id="ZK_sKQKA7-tzC6VgeQzl-2" value="É cobre ou aluminio?" style="rhombus;whiteSpace=wrap;html=1;fillColor=#e1d5e7;strokeColor=#9673a6;" vertex="1" parent="WIyWlLk6GJQsqaUBKTNV-1">
          <mxGeometry x="997.5" y="360" width="95" height="90" as="geometry" />
        </mxCell>
        <mxCell id="ZK_sKQKA7-tzC6VgeQzl-26" style="edgeStyle=orthogonalEdgeStyle;rounded=0;orthogonalLoop=1;jettySize=auto;html=1;exitX=0.5;exitY=1;exitDx=0;exitDy=0;" edge="1" parent="WIyWlLk6GJQsqaUBKTNV-1" source="ZK_sKQKA7-tzC6VgeQzl-3" target="ZK_sKQKA7-tzC6VgeQzl-9">
          <mxGeometry relative="1" as="geometry" />
        </mxCell>
        <mxCell id="ZK_sKQKA7-tzC6VgeQzl-3" value="Pesar o material" style="rounded=0;whiteSpace=wrap;html=1;fillColor=#d5e8d4;strokeColor=#82b366;" vertex="1" parent="WIyWlLk6GJQsqaUBKTNV-1">
          <mxGeometry x="985" y="510" width="120" height="60" as="geometry" />
        </mxCell>
        <mxCell id="ZK_sKQKA7-tzC6VgeQzl-24" style="edgeStyle=orthogonalEdgeStyle;rounded=0;orthogonalLoop=1;jettySize=auto;html=1;exitX=0.5;exitY=1;exitDx=0;exitDy=0;" edge="1" parent="WIyWlLk6GJQsqaUBKTNV-1" source="ZK_sKQKA7-tzC6VgeQzl-5" target="ZK_sKQKA7-tzC6VgeQzl-2">
          <mxGeometry relative="1" as="geometry" />
        </mxCell>
        <mxCell id="ZK_sKQKA7-tzC6VgeQzl-43" style="edgeStyle=orthogonalEdgeStyle;rounded=0;orthogonalLoop=1;jettySize=auto;html=1;exitX=0;exitY=0.5;exitDx=0;exitDy=0;entryX=1;entryY=0.5;entryDx=0;entryDy=0;" edge="1" parent="WIyWlLk6GJQsqaUBKTNV-1" source="ZK_sKQKA7-tzC6VgeQzl-5" target="ZK_sKQKA7-tzC6VgeQzl-8">
          <mxGeometry relative="1" as="geometry" />
        </mxCell>
        <mxCell id="ZK_sKQKA7-tzC6VgeQzl-5" value="O material é um metal?" style="rhombus;whiteSpace=wrap;html=1;fillColor=#e1d5e7;strokeColor=#9673a6;" vertex="1" parent="WIyWlLk6GJQsqaUBKTNV-1">
          <mxGeometry x="1002.5" y="225" width="85" height="90" as="geometry" />
        </mxCell>
        <mxCell id="ZK_sKQKA7-tzC6VgeQzl-33" style="edgeStyle=orthogonalEdgeStyle;rounded=0;orthogonalLoop=1;jettySize=auto;html=1;exitX=0;exitY=0.5;exitDx=0;exitDy=0;" edge="1" parent="WIyWlLk6GJQsqaUBKTNV-1" source="ZK_sKQKA7-tzC6VgeQzl-7" target="ZK_sKQKA7-tzC6VgeQzl-14">
          <mxGeometry relative="1" as="geometry" />
        </mxCell>
        <mxCell id="ZK_sKQKA7-tzC6VgeQzl-7" value="Anexar certificado de qualidade" style="rounded=0;whiteSpace=wrap;html=1;fillColor=#d5e8d4;strokeColor=#82b366;" vertex="1" parent="WIyWlLk6GJQsqaUBKTNV-1">
          <mxGeometry x="600" y="240" width="120" height="60" as="geometry" />
        </mxCell>
        <mxCell id="ZK_sKQKA7-tzC6VgeQzl-32" style="edgeStyle=orthogonalEdgeStyle;rounded=0;orthogonalLoop=1;jettySize=auto;html=1;exitX=0;exitY=0.5;exitDx=0;exitDy=0;" edge="1" parent="WIyWlLk6GJQsqaUBKTNV-1" source="ZK_sKQKA7-tzC6VgeQzl-8" target="ZK_sKQKA7-tzC6VgeQzl-7">
          <mxGeometry relative="1" as="geometry" />
        </mxCell>
        <mxCell id="ZK_sKQKA7-tzC6VgeQzl-45" style="edgeStyle=orthogonalEdgeStyle;rounded=0;orthogonalLoop=1;jettySize=auto;html=1;exitX=0.5;exitY=0;exitDx=0;exitDy=0;entryX=0.5;entryY=0;entryDx=0;entryDy=0;" edge="1" parent="WIyWlLk6GJQsqaUBKTNV-1" source="ZK_sKQKA7-tzC6VgeQzl-8" target="ZK_sKQKA7-tzC6VgeQzl-14">
          <mxGeometry relative="1" as="geometry" />
        </mxCell>
        <mxCell id="ZK_sKQKA7-tzC6VgeQzl-8" value="O material tem certificado de qualidade?" style="rhombus;whiteSpace=wrap;html=1;fillColor=#e1d5e7;strokeColor=#9673a6;" vertex="1" parent="WIyWlLk6GJQsqaUBKTNV-1">
          <mxGeometry x="807.5" y="220" width="105" height="100" as="geometry" />
        </mxCell>
        <mxCell id="ZK_sKQKA7-tzC6VgeQzl-27" style="edgeStyle=orthogonalEdgeStyle;rounded=0;orthogonalLoop=1;jettySize=auto;html=1;exitX=0;exitY=0.5;exitDx=0;exitDy=0;entryX=1;entryY=0.5;entryDx=0;entryDy=0;" edge="1" parent="WIyWlLk6GJQsqaUBKTNV-1" source="ZK_sKQKA7-tzC6VgeQzl-9" target="ZK_sKQKA7-tzC6VgeQzl-10">
          <mxGeometry relative="1" as="geometry" />
        </mxCell>
        <mxCell id="ZK_sKQKA7-tzC6VgeQzl-9" value="Diferença entre o peso final e o peso que está escrito na folha do fornecedor" style="rounded=0;whiteSpace=wrap;html=1;fillColor=#d5e8d4;strokeColor=#82b366;" vertex="1" parent="WIyWlLk6GJQsqaUBKTNV-1">
          <mxGeometry x="985" y="630" width="120" height="60" as="geometry" />
        </mxCell>
        <mxCell id="ZK_sKQKA7-tzC6VgeQzl-28" style="edgeStyle=orthogonalEdgeStyle;rounded=0;orthogonalLoop=1;jettySize=auto;html=1;exitX=0.5;exitY=0;exitDx=0;exitDy=0;entryX=0.5;entryY=1;entryDx=0;entryDy=0;" edge="1" parent="WIyWlLk6GJQsqaUBKTNV-1" source="ZK_sKQKA7-tzC6VgeQzl-10" target="ZK_sKQKA7-tzC6VgeQzl-12">
          <mxGeometry relative="1" as="geometry" />
        </mxCell>
        <mxCell id="ZK_sKQKA7-tzC6VgeQzl-29" style="edgeStyle=orthogonalEdgeStyle;rounded=0;orthogonalLoop=1;jettySize=auto;html=1;exitX=0.5;exitY=1;exitDx=0;exitDy=0;" edge="1" parent="WIyWlLk6GJQsqaUBKTNV-1" source="ZK_sKQKA7-tzC6VgeQzl-10" target="ZK_sKQKA7-tzC6VgeQzl-11">
          <mxGeometry relative="1" as="geometry" />
        </mxCell>
        <mxCell id="ZK_sKQKA7-tzC6VgeQzl-10" value="O resultado é favorável?" style="rhombus;whiteSpace=wrap;html=1;fillColor=#e1d5e7;strokeColor=#9673a6;" vertex="1" parent="WIyWlLk6GJQsqaUBKTNV-1">
          <mxGeometry x="811.5" y="615" width="97" height="90" as="geometry" />
        </mxCell>
        <mxCell id="ZK_sKQKA7-tzC6VgeQzl-41" style="edgeStyle=orthogonalEdgeStyle;rounded=0;orthogonalLoop=1;jettySize=auto;html=1;exitX=0;exitY=0.5;exitDx=0;exitDy=0;entryX=0;entryY=0.5;entryDx=0;entryDy=0;" edge="1" parent="WIyWlLk6GJQsqaUBKTNV-1" source="ZK_sKQKA7-tzC6VgeQzl-11" target="ZK_sKQKA7-tzC6VgeQzl-12">
          <mxGeometry relative="1" as="geometry" />
        </mxCell>
        <mxCell id="ZK_sKQKA7-tzC6VgeQzl-11" value="Envio automático de e-mail com alerta para a chefia" style="rounded=0;whiteSpace=wrap;html=1;fillColor=#d5e8d4;strokeColor=#82b366;" vertex="1" parent="WIyWlLk6GJQsqaUBKTNV-1">
          <mxGeometry x="800" y="750" width="120" height="60" as="geometry" />
        </mxCell>
        <mxCell id="ZK_sKQKA7-tzC6VgeQzl-30" style="edgeStyle=orthogonalEdgeStyle;rounded=0;orthogonalLoop=1;jettySize=auto;html=1;exitX=0.5;exitY=0;exitDx=0;exitDy=0;" edge="1" parent="WIyWlLk6GJQsqaUBKTNV-1" source="ZK_sKQKA7-tzC6VgeQzl-12" target="ZK_sKQKA7-tzC6VgeQzl-13">
          <mxGeometry relative="1" as="geometry" />
        </mxCell>
        <mxCell id="ZK_sKQKA7-tzC6VgeQzl-12" value="Anexar folha da encomenda" style="rounded=0;whiteSpace=wrap;html=1;fillColor=#d5e8d4;strokeColor=#82b366;" vertex="1" parent="WIyWlLk6GJQsqaUBKTNV-1">
          <mxGeometry x="800" y="510" width="120" height="60" as="geometry" />
        </mxCell>
        <mxCell id="ZK_sKQKA7-tzC6VgeQzl-31" style="edgeStyle=orthogonalEdgeStyle;rounded=0;orthogonalLoop=1;jettySize=auto;html=1;exitX=0.5;exitY=0;exitDx=0;exitDy=0;" edge="1" parent="WIyWlLk6GJQsqaUBKTNV-1" source="ZK_sKQKA7-tzC6VgeQzl-13" target="ZK_sKQKA7-tzC6VgeQzl-8">
          <mxGeometry relative="1" as="geometry" />
        </mxCell>
        <mxCell id="ZK_sKQKA7-tzC6VgeQzl-13" value="Envio automático de e-mail para compras" style="rounded=0;whiteSpace=wrap;html=1;fillColor=#d5e8d4;strokeColor=#82b366;" vertex="1" parent="WIyWlLk6GJQsqaUBKTNV-1">
          <mxGeometry x="800" y="390" width="120" height="60" as="geometry" />
        </mxCell>
        <mxCell id="ZK_sKQKA7-tzC6VgeQzl-34" style="edgeStyle=orthogonalEdgeStyle;rounded=0;orthogonalLoop=1;jettySize=auto;html=1;exitX=0;exitY=0.5;exitDx=0;exitDy=0;entryX=1;entryY=0.5;entryDx=0;entryDy=0;" edge="1" parent="WIyWlLk6GJQsqaUBKTNV-1" source="ZK_sKQKA7-tzC6VgeQzl-14" target="ZK_sKQKA7-tzC6VgeQzl-15">
          <mxGeometry relative="1" as="geometry" />
        </mxCell>
        <mxCell id="ZK_sKQKA7-tzC6VgeQzl-14" value="Preencher os restantes dados do formulário" style="rounded=0;whiteSpace=wrap;html=1;fillColor=#d5e8d4;strokeColor=#82b366;" vertex="1" parent="WIyWlLk6GJQsqaUBKTNV-1">
          <mxGeometry x="400" y="240" width="120" height="60" as="geometry" />
        </mxCell>
        <mxCell id="ZK_sKQKA7-tzC6VgeQzl-35" style="edgeStyle=orthogonalEdgeStyle;rounded=0;orthogonalLoop=1;jettySize=auto;html=1;exitX=0;exitY=0.5;exitDx=0;exitDy=0;entryX=1;entryY=0.5;entryDx=0;entryDy=0;" edge="1" parent="WIyWlLk6GJQsqaUBKTNV-1" source="ZK_sKQKA7-tzC6VgeQzl-15" target="ZK_sKQKA7-tzC6VgeQzl-18">
          <mxGeometry relative="1" as="geometry" />
        </mxCell>
        <mxCell id="ZK_sKQKA7-tzC6VgeQzl-15" value="Envio do formulário" style="rounded=0;whiteSpace=wrap;html=1;fillColor=#d5e8d4;strokeColor=#82b366;" vertex="1" parent="WIyWlLk6GJQsqaUBKTNV-1">
          <mxGeometry x="210" y="240" width="120" height="60" as="geometry" />
        </mxCell>
        <mxCell id="ZK_sKQKA7-tzC6VgeQzl-37" style="edgeStyle=orthogonalEdgeStyle;rounded=0;orthogonalLoop=1;jettySize=auto;html=1;exitX=0.5;exitY=1;exitDx=0;exitDy=0;" edge="1" parent="WIyWlLk6GJQsqaUBKTNV-1" source="ZK_sKQKA7-tzC6VgeQzl-16" target="ZK_sKQKA7-tzC6VgeQzl-17">
          <mxGeometry relative="1" as="geometry" />
        </mxCell>
        <mxCell id="ZK_sKQKA7-tzC6VgeQzl-16" value="O laboratório de qualidade recebe notificação por e-mail" style="rounded=0;whiteSpace=wrap;html=1;fillColor=#d5e8d4;strokeColor=#82b366;" vertex="1" parent="WIyWlLk6GJQsqaUBKTNV-1">
          <mxGeometry x="30" y="354" width="120" height="60" as="geometry" />
        </mxCell>
        <mxCell id="ZK_sKQKA7-tzC6VgeQzl-38" style="edgeStyle=orthogonalEdgeStyle;rounded=0;orthogonalLoop=1;jettySize=auto;html=1;exitX=0.5;exitY=1;exitDx=0;exitDy=0;" edge="1" parent="WIyWlLk6GJQsqaUBKTNV-1" source="ZK_sKQKA7-tzC6VgeQzl-17" target="ZK_sKQKA7-tzC6VgeQzl-19">
          <mxGeometry relative="1" as="geometry" />
        </mxCell>
        <mxCell id="ZK_sKQKA7-tzC6VgeQzl-17" value="O laboratório de qualidade verifica se o produto está conforme&amp;nbsp;" style="rounded=0;whiteSpace=wrap;html=1;fillColor=#d5e8d4;strokeColor=#82b366;" vertex="1" parent="WIyWlLk6GJQsqaUBKTNV-1">
          <mxGeometry x="30" y="470" width="120" height="60" as="geometry" />
        </mxCell>
        <mxCell id="ZK_sKQKA7-tzC6VgeQzl-36" style="edgeStyle=orthogonalEdgeStyle;rounded=0;orthogonalLoop=1;jettySize=auto;html=1;exitX=0.5;exitY=1;exitDx=0;exitDy=0;" edge="1" parent="WIyWlLk6GJQsqaUBKTNV-1" source="ZK_sKQKA7-tzC6VgeQzl-18" target="ZK_sKQKA7-tzC6VgeQzl-16">
          <mxGeometry relative="1" as="geometry" />
        </mxCell>
        <mxCell id="ZK_sKQKA7-tzC6VgeQzl-18" value="Entrada em SAP" style="rounded=0;whiteSpace=wrap;html=1;fillColor=#d5e8d4;strokeColor=#82b366;" vertex="1" parent="WIyWlLk6GJQsqaUBKTNV-1">
          <mxGeometry x="30" y="240" width="120" height="60" as="geometry" />
        </mxCell>
        <mxCell id="ZK_sKQKA7-tzC6VgeQzl-39" style="edgeStyle=orthogonalEdgeStyle;rounded=0;orthogonalLoop=1;jettySize=auto;html=1;exitX=1;exitY=0.5;exitDx=0;exitDy=0;" edge="1" parent="WIyWlLk6GJQsqaUBKTNV-1" source="ZK_sKQKA7-tzC6VgeQzl-19" target="ZK_sKQKA7-tzC6VgeQzl-20">
          <mxGeometry relative="1" as="geometry" />
        </mxCell>
        <mxCell id="ZK_sKQKA7-tzC6VgeQzl-40" style="edgeStyle=orthogonalEdgeStyle;rounded=0;orthogonalLoop=1;jettySize=auto;html=1;exitX=0.5;exitY=1;exitDx=0;exitDy=0;" edge="1" parent="WIyWlLk6GJQsqaUBKTNV-1" source="ZK_sKQKA7-tzC6VgeQzl-19" target="ZK_sKQKA7-tzC6VgeQzl-22">
          <mxGeometry relative="1" as="geometry" />
        </mxCell>
        <mxCell id="ZK_sKQKA7-tzC6VgeQzl-19" value="O material está ok?" style="rhombus;whiteSpace=wrap;html=1;fillColor=#e1d5e7;strokeColor=#9673a6;" vertex="1" parent="WIyWlLk6GJQsqaUBKTNV-1">
          <mxGeometry x="50" y="590" width="80" height="80" as="geometry" />
        </mxCell>
        <mxCell id="ZK_sKQKA7-tzC6VgeQzl-42" style="edgeStyle=orthogonalEdgeStyle;rounded=0;orthogonalLoop=1;jettySize=auto;html=1;exitX=0.5;exitY=1;exitDx=0;exitDy=0;entryX=1;entryY=0.5;entryDx=0;entryDy=0;" edge="1" parent="WIyWlLk6GJQsqaUBKTNV-1" source="ZK_sKQKA7-tzC6VgeQzl-20" target="ZK_sKQKA7-tzC6VgeQzl-22">
          <mxGeometry relative="1" as="geometry" />
        </mxCell>
        <mxCell id="ZK_sKQKA7-tzC6VgeQzl-20" value="Abertura de uma folha de produto não conforme" style="rounded=0;whiteSpace=wrap;html=1;fillColor=#d5e8d4;strokeColor=#82b366;" vertex="1" parent="WIyWlLk6GJQsqaUBKTNV-1">
          <mxGeometry x="210" y="600" width="120" height="60" as="geometry" />
        </mxCell>
        <mxCell id="ZK_sKQKA7-tzC6VgeQzl-22" value="Fim" style="ellipse;whiteSpace=wrap;html=1;fillColor=#fff2cc;strokeColor=#d6b656;" vertex="1" parent="WIyWlLk6GJQsqaUBKTNV-1">
          <mxGeometry x="35" y="720" width="110" height="40" as="geometry" />
        </mxCell>
        <mxCell id="ZK_sKQKA7-tzC6VgeQzl-47" value="Sim" style="text;html=1;strokeColor=none;fillColor=none;align=center;verticalAlign=middle;whiteSpace=wrap;rounded=0;" vertex="1" parent="WIyWlLk6GJQsqaUBKTNV-1">
          <mxGeometry x="1032.5" y="330" width="60" height="30" as="geometry" />
        </mxCell>
        <mxCell id="ZK_sKQKA7-tzC6VgeQzl-49" value="Sim" style="text;html=1;strokeColor=none;fillColor=none;align=center;verticalAlign=middle;whiteSpace=wrap;rounded=0;" vertex="1" parent="WIyWlLk6GJQsqaUBKTNV-1">
          <mxGeometry x="1032.5" y="480" width="60" height="30" as="geometry" />
        </mxCell>
        <mxCell id="ZK_sKQKA7-tzC6VgeQzl-50" value="Sim" style="text;html=1;strokeColor=none;fillColor=none;align=center;verticalAlign=middle;whiteSpace=wrap;rounded=0;" vertex="1" parent="WIyWlLk6GJQsqaUBKTNV-1">
          <mxGeometry x="848.5" y="590" width="60" height="30" as="geometry" />
        </mxCell>
        <mxCell id="ZK_sKQKA7-tzC6VgeQzl-51" value="Sim" style="text;html=1;strokeColor=none;fillColor=none;align=center;verticalAlign=middle;whiteSpace=wrap;rounded=0;" vertex="1" parent="WIyWlLk6GJQsqaUBKTNV-1">
          <mxGeometry x="751.5" y="250" width="60" height="30" as="geometry" />
        </mxCell>
        <mxCell id="ZK_sKQKA7-tzC6VgeQzl-52" value="Sim" style="text;html=1;strokeColor=none;fillColor=none;align=center;verticalAlign=middle;whiteSpace=wrap;rounded=0;" vertex="1" parent="WIyWlLk6GJQsqaUBKTNV-1">
          <mxGeometry x="40" y="570" width="60" height="30" as="geometry" />
        </mxCell>
        <mxCell id="ZK_sKQKA7-tzC6VgeQzl-53" value="Não" style="text;html=1;strokeColor=none;fillColor=none;align=center;verticalAlign=middle;whiteSpace=wrap;rounded=0;" vertex="1" parent="WIyWlLk6GJQsqaUBKTNV-1">
          <mxGeometry x="942.5" y="250" width="60" height="30" as="geometry" />
        </mxCell>
        <mxCell id="ZK_sKQKA7-tzC6VgeQzl-54" value="Não" style="text;html=1;strokeColor=none;fillColor=none;align=center;verticalAlign=middle;whiteSpace=wrap;rounded=0;" vertex="1" parent="WIyWlLk6GJQsqaUBKTNV-1">
          <mxGeometry x="942.5" y="383.5" width="60" height="30" as="geometry" />
        </mxCell>
        <mxCell id="ZK_sKQKA7-tzC6VgeQzl-55" value="Não" style="text;html=1;strokeColor=none;fillColor=none;align=center;verticalAlign=middle;whiteSpace=wrap;rounded=0;" vertex="1" parent="WIyWlLk6GJQsqaUBKTNV-1">
          <mxGeometry x="848.5" y="700" width="60" height="30" as="geometry" />
        </mxCell>
        <mxCell id="ZK_sKQKA7-tzC6VgeQzl-56" value="Não" style="text;html=1;strokeColor=none;fillColor=none;align=center;verticalAlign=middle;whiteSpace=wrap;rounded=0;" vertex="1" parent="WIyWlLk6GJQsqaUBKTNV-1">
          <mxGeometry x="807.5" y="170" width="60" height="30" as="geometry" />
        </mxCell>
        <mxCell id="ZK_sKQKA7-tzC6VgeQzl-57" value="Não" style="text;html=1;strokeColor=none;fillColor=none;align=center;verticalAlign=middle;whiteSpace=wrap;rounded=0;" vertex="1" parent="WIyWlLk6GJQsqaUBKTNV-1">
          <mxGeometry x="120" y="610" width="60" height="30" as="geometry" />
        </mxCell>
      </root>
    </mxGraphModel>
  </diagram>
</mxfile>
